<svg xmlns="http://www.w3.org/2000/svg" viewBox="0 0 100 100" width="50" height="50">
  <path d="M50 90 C35 70, 15 55, 15 35 C15 15, 35 10, 50 10 C65 10, 85 15, 85 35 C85 55, 65 70, 50 90 Z" fill="#4CAF50" />
  <path d="M50 10 C45 30, 45 60, 50 90" stroke="#2E7D32" stroke-width="2" fill="none" />
  <path d="M50 30 Q35 40, 25 35" stroke="#2E7D32" stroke-width="1.5" fill="none" />
  <path d="M50 45 Q35 55, 20 50" stroke="#2E7D32" stroke-width="1.5" fill="none" />
  <path d="M50 60 Q35 70, 22 65" stroke="#2E7D32" stroke-width="1.5" fill="none" />
  <path d="M50 30 Q65 40, 75 35" stroke="#2E7D32" stroke-width="1.5" fill="none" />
  <path d="M50 45 Q65 55, 80 50" stroke="#2E7D32" stroke-width="1.5" fill="none" />
  <path d="M50 60 Q65 70, 78 65" stroke="#2E7D32" stroke-width="1.5" fill="none" />
</svg>
